Coordinates
version=1
nRows=11
nColumns=63
inDegrees=yes

Units are S.I. units (second, meters, Newtons, ...)
If the header above contains a line with 'inDegrees', this indicates whether rotational values are in degrees (yes) or radians (no).

endheader
time	pelvis_tilt	pelvis_list	pelvis_rotation	pelvis_tx	pelvis_ty	pelvis_tz	hip_flexion_r	hip_adduction_r	hip_rotation_r	knee_angle_r	knee_angle_r_beta	ankle_angle_r	subtalar_angle_r	mtp_angle_r	hip_flexion_l	hip_adduction_l	hip_rotation_l	knee_angle_l	knee_angle_l_beta	ankle_angle_l	subtalar_angle_l	mtp_angle_l	L5_S1_Flex_Ext	L5_S1_Lat_Bending	L5_S1_axial_rotation	L4_L5_Flex_Ext	L4_L5_Lat_Bending	L4_L5_axial_rotation	L3_L4_Flex_Ext	L3_L4_Lat_Bending	L3_L4_axial_rotation	L2_L3_Flex_Ext	L2_L3_Lat_Bending	L2_L3_axial_rotation	L1_L2_Flex_Ext	L1_L2_Lat_Bending	L1_L2_axial_rotation	L1_T12_Flex_Ext	L1_T12_Lat_Bending	L1_T12_axial_rotation	Abs_r3	Abs_r2	Abs_r1	Abs_t1	Abs_t2	neck_flexion	neck_bending	neck_rotation	arm_flex_r	arm_add_r	arm_rot_r	elbow_flex_r	pro_sup_r	wrist_flex_r	wrist_dev_r	arm_flex_l	arm_add_l	arm_rot_l	elbow_flex_l	pro_sup_l	wrist_flex_l	wrist_dev_l
2.677966	1.870666	7.800129	91.281030	0.337224	0.956924	0.550313	-12.437069	2.697684	3.233126	0.415978	0.007260	14.223379	-13.248393	0.000000	-10.706012	-5.099920	19.825594	0.368301	0.006428	21.636619	-4.789257	0.000000	-0.063516	0.105578	0.336151	-0.117955	0.140418	0.357161	-0.104350	0.256702	0.357161	-0.072592	0.256702	0.294132	-0.058981	0.215294	0.273123	-0.036293	0.163540	0.252113	-0.453686	1.194316	1.869572	0.000000	0.000000	2.950661	2.661975	-15.043067	48.746330	-29.239030	-10.180761	149.378154	88.622578	-10.385869	7.771305	55.802416	-14.208775	8.415457	144.660036	88.897927	-1.542713	20.575759
2.694915	1.902582	7.868756	91.155956	0.337792	0.957076	0.549350	-12.573512	2.746925	3.111642	0.408979	0.007138	14.163463	-13.132068	0.000000	-10.878564	-5.141761	20.447487	0.373080	0.006511	21.207543	-5.556801	0.000000	-0.058444	0.097550	0.384171	-0.108537	0.129741	0.408181	-0.096018	0.237182	0.408181	-0.066796	0.237182	0.336149	-0.054271	0.198923	0.312139	-0.033395	0.151104	0.288128	-0.417461	1.103501	2.136642	0.000000	0.000000	2.521546	2.903240	-15.760302	47.652202	-28.868599	-10.358329	149.440955	88.653396	-12.107047	5.818114	55.654914	-14.100684	8.781027	144.258714	88.901215	-2.022272	20.568294
2.711864	1.899410	7.942373	90.998562	0.338563	0.957177	0.548396	-12.708780	2.756384	3.036042	0.400593	0.006992	14.242223	-12.882414	0.000000	-11.062390	-5.149692	20.979156	0.374521	0.006537	20.792133	-6.306914	0.000000	-0.054570	0.084479	0.418536	-0.101341	0.112357	0.444695	-0.089652	0.205402	0.444695	-0.062368	0.205402	0.366219	-0.050673	0.172269	0.340061	-0.031181	0.130858	0.313902	-0.389785	0.955643	2.327774	0.000000	0.000000	2.163870	3.151839	-16.473814	46.367310	-28.251546	-10.319670	149.333633	88.691371	-13.503143	3.939469	55.355970	-14.023037	9.179913	143.827441	88.920346	-2.223744	20.433336
2.728814	1.867450	8.038847	90.844410	0.339426	0.957241	0.547557	-12.863476	2.738220	3.116532	0.380865	0.006647	14.347827	-12.771240	0.000000	-11.267077	-5.131875	21.537625	0.366223	0.006392	20.363314	-7.173727	0.000000	-0.057074	0.069806	0.424624	-0.105992	0.092843	0.451163	-0.093767	0.169727	0.451163	-0.065230	0.169727	0.371546	-0.052999	0.142349	0.345007	-0.032612	0.108130	0.318468	-0.407675	0.789664	2.361631	0.000000	0.000000	1.912633	3.311243	-17.119358	45.096607	-27.331799	-10.149489	149.081632	88.761542	-13.985502	2.753008	54.956560	-13.963218	9.465685	143.444671	88.961802	-1.747494	20.618334
2.745763	1.790492	8.144065	90.690195	0.340397	0.957283	0.546897	-13.005123	2.671846	3.213501	0.382526	0.006676	14.525610	-12.585275	0.000000	-11.463691	-5.067951	21.971343	0.367547	0.006415	19.969640	-7.931065	0.000000	-0.063726	0.051954	0.403205	-0.118345	0.069099	0.428405	-0.104695	0.126321	0.428405	-0.072832	0.126321	0.352804	-0.059176	0.105945	0.327604	-0.036413	0.080477	0.302404	-0.455186	0.587715	2.242504	0.000000	0.000000	1.751818	3.399202	-17.632119	43.882836	-26.191234	-9.749601	148.619102	88.805840	-13.773057	1.876569	54.465501	-13.983486	9.700433	143.050216	88.973184	-0.804748	20.793546
2.762712	1.695213	8.273285	90.528520	0.341419	0.957341	0.546443	-13.154935	2.581501	3.314015	0.390683	0.006819	14.727236	-12.327690	0.000000	-11.672869	-4.983072	22.267174	0.367062	0.006406	19.631808	-8.554651	0.000000	-0.077261	0.035660	0.357248	-0.143482	0.047428	0.379576	-0.126933	0.086704	0.379576	-0.088302	0.086704	0.312592	-0.071745	0.072718	0.290264	-0.044147	0.055237	0.267936	-0.551870	0.403392	1.986904	0.000000	0.000000	1.673516	3.414201	-17.898167	42.831338	-24.924819	-9.104716	147.959523	88.854575	-12.956918	1.316952	53.908767	-14.078888	9.857357	142.678239	88.984712	0.487696	21.097493
2.779661	1.569645	8.418483	90.379849	0.342466	0.957425	0.546207	-13.304127	2.459295	3.380809	0.406907	0.007102	14.949277	-11.993899	0.000000	-11.879663	-4.867477	22.412538	0.365300	0.006376	19.344012	-9.010263	0.000000	-0.095982	0.018946	0.290195	-0.178248	0.025199	0.308332	-0.157689	0.046066	0.308332	-0.109698	0.046066	0.253920	-0.089129	0.038635	0.235783	-0.054844	0.029348	0.217646	-0.685590	0.214325	1.613976	0.000000	0.000000	1.641000	3.356855	-17.931493	42.010873	-23.604952	-8.288696	147.179463	88.893635	-11.550316	1.281793	53.346815	-14.278577	9.950454	142.331245	88.993923	2.002643	21.525798
2.796610	1.436185	8.570147	90.233178	0.343503	0.957536	0.546164	-13.443627	2.325721	3.540152	0.431232	0.007526	15.136438	-11.771035	0.000000	-12.077451	-4.741150	22.452872	0.362251	0.006322	19.112039	-9.363321	0.000000	-0.117198	0.004331	0.214953	-0.217649	0.005761	0.228387	-0.192545	0.010531	0.228387	-0.133946	0.010531	0.188084	-0.108830	0.008832	0.174649	-0.066967	0.006709	0.161215	-0.837134	0.048997	1.195503	0.000000	0.000000	1.626302	3.282503	-17.680827	41.467233	-22.372675	-7.329676	146.330794	88.920561	-9.817035	1.660310	52.826151	-14.549993	9.992985	142.016584	89.001066	3.574227	22.103222
2.813559	1.298329	8.722735	90.102930	0.344487	0.957674	0.546301	-13.569772	2.186861	3.713842	0.462859	0.008078	15.323388	-11.581154	0.000000	-12.258287	-4.610312	22.412480	0.359342	0.006272	18.928832	-9.609689	0.000000	-0.140109	-0.008353	0.134200	-0.260196	-0.011109	0.142588	-0.230185	-0.020309	0.142588	-0.160130	-0.020309	0.117425	-0.130105	-0.017033	0.109038	-0.080058	-0.012938	0.100650	-1.000783	-0.094487	0.746382	0.000000	0.000000	1.622297	3.192113	-17.183811	41.289768	-21.265804	-6.378959	145.513405	88.924861	-7.613864	2.770556	52.418817	-14.885758	9.915859	141.771512	89.002918	5.273694	22.936391
2.830508	1.169767	8.863894	89.995832	0.345375	0.957837	0.546551	-13.674989	2.058427	3.897808	0.498578	0.008702	15.491182	-11.442508	0.000000	-12.412949	-4.488274	22.293433	0.356043	0.006214	18.798289	-9.736422	0.000000	-0.162100	-0.018242	0.057600	-0.301035	-0.024262	0.061200	-0.266313	-0.044354	0.061200	-0.185264	-0.044354	0.050400	-0.150526	-0.037200	0.046800	-0.092624	-0.028257	0.043200	-1.157861	-0.206359	0.320352	0.000000	0.000000	1.618109	3.121277	-16.461111	41.464964	-20.441799	-5.389159	144.791454	88.918305	-5.571379	4.346322	52.156861	-15.277995	9.821263	141.606028	89.006440	6.661198	23.833880
2.847458	1.057171	8.983156	89.922948	0.346130	0.957999	0.546872	-13.753433	1.949782	4.079935	0.536585	0.009365	15.649016	-11.365552	0.000000	-12.532989	-4.384409	22.179864	0.352791	0.006157	18.705026	-9.809303	0.000000	-0.181556	-0.025225	-0.012177	-0.337168	-0.033549	-0.012938	-0.298279	-0.061332	-0.012938	-0.207501	-0.061332	-0.010655	-0.168593	-0.051439	-0.009894	-0.103741	-0.039074	-0.009133	-1.296840	-0.285351	-0.067726	0.000000	0.000000	1.623419	3.061456	-15.594089	42.009272	-19.922265	-4.477602	144.225128	88.901142	-3.679692	6.413068	52.063757	-15.701988	9.684094	141.547386	89.009329	7.656911	24.757859
